<mxfile host="app.diagrams.net" modified="2021-09-09T05:46:14.132Z" agent="5.0 (Macintosh; Intel Mac OS X 10_14_5) AppleWebKit/537.36 (KHTML, like Gecko) Chrome/92.0.4515.131 Safari/537.36" etag="6cy8dLMZ8DABAbjdRNXX" version="15.1.1" type="github">
  <diagram id="8ySjM1XjnmDC9T0SSl26" name="Page-1">
    <mxGraphModel dx="1186" dy="637" grid="1" gridSize="10" guides="1" tooltips="1" connect="1" arrows="1" fold="1" page="1" pageScale="1" pageWidth="827" pageHeight="1169" math="0" shadow="0">
      <root>
        <mxCell id="0" />
        <mxCell id="1" parent="0" />
        <mxCell id="lmtUF1X2-M9YzweJEV8g-104" value="" style="rounded=1;whiteSpace=wrap;html=1;dashed=1;" vertex="1" parent="1">
          <mxGeometry x="473" y="630" width="292" height="60" as="geometry" />
        </mxCell>
        <mxCell id="lmtUF1X2-M9YzweJEV8g-74" value="" style="rounded=1;whiteSpace=wrap;html=1;dashed=1;" vertex="1" parent="1">
          <mxGeometry x="330" y="420" width="490" height="100" as="geometry" />
        </mxCell>
        <mxCell id="lmtUF1X2-M9YzweJEV8g-31" value="" style="edgeStyle=orthogonalEdgeStyle;rounded=0;orthogonalLoop=1;jettySize=auto;html=1;" edge="1" parent="1" source="lmtUF1X2-M9YzweJEV8g-32">
          <mxGeometry relative="1" as="geometry">
            <mxPoint x="369" y="757" as="targetPoint" />
          </mxGeometry>
        </mxCell>
        <mxCell id="lmtUF1X2-M9YzweJEV8g-32" value="" style="shape=image;html=1;verticalAlign=top;verticalLabelPosition=bottom;labelBackgroundColor=#ffffff;imageAspect=0;aspect=fixed;image=https://cdn2.iconfinder.com/data/icons/analytic-investment-and-balanced-scorecard/512/421_Audio_frequency_hertz_sequence_wave_sound_design_producstion-128.png" vertex="1" parent="1">
          <mxGeometry x="189" y="690" width="134" height="134" as="geometry" />
        </mxCell>
        <mxCell id="lmtUF1X2-M9YzweJEV8g-49" value="&lt;font style=&quot;font-size: 18px&quot;&gt;pronunciation score&lt;/font&gt;" style="text;html=1;strokeColor=none;fillColor=none;align=center;verticalAlign=middle;whiteSpace=wrap;rounded=0;" vertex="1" parent="1">
          <mxGeometry x="880" y="460" width="40" height="20" as="geometry" />
        </mxCell>
        <mxCell id="lmtUF1X2-M9YzweJEV8g-72" value="" style="edgeStyle=orthogonalEdgeStyle;rounded=0;orthogonalLoop=1;jettySize=auto;html=1;" edge="1" parent="1" source="lmtUF1X2-M9YzweJEV8g-53" target="lmtUF1X2-M9YzweJEV8g-70">
          <mxGeometry relative="1" as="geometry" />
        </mxCell>
        <mxCell id="lmtUF1X2-M9YzweJEV8g-53" value="&lt;span style=&quot;font-size: 18px&quot;&gt;Decoder&lt;/span&gt;" style="shape=process;whiteSpace=wrap;html=1;backgroundOutline=1;" vertex="1" parent="1">
          <mxGeometry x="350" y="440" width="120" height="60" as="geometry" />
        </mxCell>
        <mxCell id="lmtUF1X2-M9YzweJEV8g-56" value="" style="edgeStyle=orthogonalEdgeStyle;rounded=0;orthogonalLoop=1;jettySize=auto;html=1;" edge="1" parent="1" source="lmtUF1X2-M9YzweJEV8g-54" target="lmtUF1X2-M9YzweJEV8g-53">
          <mxGeometry relative="1" as="geometry" />
        </mxCell>
        <mxCell id="lmtUF1X2-M9YzweJEV8g-54" value="&lt;span style=&quot;font-size: 18px&quot;&gt;AM输出&lt;/span&gt;" style="rounded=1;whiteSpace=wrap;html=1;" vertex="1" parent="1">
          <mxGeometry x="190" y="440" width="120" height="60" as="geometry" />
        </mxCell>
        <mxCell id="lmtUF1X2-M9YzweJEV8g-57" value="" style="edgeStyle=orthogonalEdgeStyle;rounded=0;orthogonalLoop=1;jettySize=auto;html=1;" edge="1" parent="1" source="lmtUF1X2-M9YzweJEV8g-55" target="lmtUF1X2-M9YzweJEV8g-53">
          <mxGeometry relative="1" as="geometry" />
        </mxCell>
        <mxCell id="lmtUF1X2-M9YzweJEV8g-55" value="&lt;font style=&quot;font-size: 18px&quot;&gt;解码网络&lt;/font&gt;" style="rounded=1;whiteSpace=wrap;html=1;" vertex="1" parent="1">
          <mxGeometry x="350" y="340" width="120" height="60" as="geometry" />
        </mxCell>
        <mxCell id="lmtUF1X2-M9YzweJEV8g-61" value="" style="edgeStyle=orthogonalEdgeStyle;rounded=0;orthogonalLoop=1;jettySize=auto;html=1;" edge="1" parent="1" source="lmtUF1X2-M9YzweJEV8g-58">
          <mxGeometry relative="1" as="geometry">
            <mxPoint x="840" y="470" as="targetPoint" />
          </mxGeometry>
        </mxCell>
        <mxCell id="lmtUF1X2-M9YzweJEV8g-58" value="&lt;font style=&quot;font-size: 18px&quot;&gt;Score Model&lt;/font&gt;" style="shape=process;whiteSpace=wrap;html=1;backgroundOutline=1;" vertex="1" parent="1">
          <mxGeometry x="680" y="440" width="120" height="60" as="geometry" />
        </mxCell>
        <mxCell id="lmtUF1X2-M9YzweJEV8g-79" value="" style="edgeStyle=orthogonalEdgeStyle;rounded=0;orthogonalLoop=1;jettySize=auto;html=1;" edge="1" parent="1" source="lmtUF1X2-M9YzweJEV8g-62" target="lmtUF1X2-M9YzweJEV8g-77">
          <mxGeometry relative="1" as="geometry" />
        </mxCell>
        <mxCell id="lmtUF1X2-M9YzweJEV8g-87" value="" style="edgeStyle=orthogonalEdgeStyle;rounded=0;orthogonalLoop=1;jettySize=auto;html=1;" edge="1" parent="1" source="lmtUF1X2-M9YzweJEV8g-62" target="lmtUF1X2-M9YzweJEV8g-86">
          <mxGeometry relative="1" as="geometry" />
        </mxCell>
        <mxCell id="lmtUF1X2-M9YzweJEV8g-62" value="&lt;font style=&quot;font-size: 18px&quot;&gt;Acoustic Model&lt;/font&gt;" style="shape=process;whiteSpace=wrap;html=1;backgroundOutline=1;" vertex="1" parent="1">
          <mxGeometry x="379" y="727" width="120" height="60" as="geometry" />
        </mxCell>
        <mxCell id="lmtUF1X2-M9YzweJEV8g-73" value="" style="edgeStyle=orthogonalEdgeStyle;rounded=0;orthogonalLoop=1;jettySize=auto;html=1;" edge="1" parent="1" source="lmtUF1X2-M9YzweJEV8g-70" target="lmtUF1X2-M9YzweJEV8g-58">
          <mxGeometry relative="1" as="geometry" />
        </mxCell>
        <mxCell id="lmtUF1X2-M9YzweJEV8g-70" value="&lt;font style=&quot;font-size: 18px&quot;&gt;特征提取&lt;/font&gt;" style="shape=process;whiteSpace=wrap;html=1;backgroundOutline=1;" vertex="1" parent="1">
          <mxGeometry x="520" y="440" width="120" height="60" as="geometry" />
        </mxCell>
        <mxCell id="lmtUF1X2-M9YzweJEV8g-75" value="&lt;font style=&quot;font-size: 18px&quot;&gt;Scorer&lt;/font&gt;" style="text;html=1;strokeColor=none;fillColor=none;align=center;verticalAlign=middle;whiteSpace=wrap;rounded=0;dashed=1;" vertex="1" parent="1">
          <mxGeometry x="700" y="395" width="120" height="20" as="geometry" />
        </mxCell>
        <mxCell id="lmtUF1X2-M9YzweJEV8g-78" value="" style="edgeStyle=orthogonalEdgeStyle;rounded=0;orthogonalLoop=1;jettySize=auto;html=1;" edge="1" parent="1" target="lmtUF1X2-M9YzweJEV8g-77">
          <mxGeometry relative="1" as="geometry">
            <mxPoint x="619" y="690" as="sourcePoint" />
          </mxGeometry>
        </mxCell>
        <mxCell id="lmtUF1X2-M9YzweJEV8g-81" value="" style="edgeStyle=orthogonalEdgeStyle;rounded=0;orthogonalLoop=1;jettySize=auto;html=1;" edge="1" parent="1" source="lmtUF1X2-M9YzweJEV8g-77">
          <mxGeometry relative="1" as="geometry">
            <mxPoint x="719" y="757" as="targetPoint" />
          </mxGeometry>
        </mxCell>
        <mxCell id="lmtUF1X2-M9YzweJEV8g-96" value="" style="edgeStyle=orthogonalEdgeStyle;rounded=0;orthogonalLoop=1;jettySize=auto;html=1;exitX=0.5;exitY=1;exitDx=0;exitDy=0;entryX=0.5;entryY=0;entryDx=0;entryDy=0;elbow=vertical;curved=1;dashed=1;" edge="1" parent="1" source="lmtUF1X2-M9YzweJEV8g-77" target="lmtUF1X2-M9YzweJEV8g-86">
          <mxGeometry relative="1" as="geometry">
            <mxPoint x="460" y="870" as="targetPoint" />
          </mxGeometry>
        </mxCell>
        <mxCell id="lmtUF1X2-M9YzweJEV8g-77" value="&lt;font style=&quot;font-size: 18px&quot;&gt;Scorer&lt;/font&gt;" style="shape=process;whiteSpace=wrap;html=1;backgroundOutline=1;dashed=1;" vertex="1" parent="1">
          <mxGeometry x="559" y="727" width="120" height="60" as="geometry" />
        </mxCell>
        <mxCell id="lmtUF1X2-M9YzweJEV8g-80" value="&lt;font style=&quot;font-size: 18px&quot;&gt;pronunciation score&lt;/font&gt;" style="text;html=1;strokeColor=none;fillColor=none;align=center;verticalAlign=middle;whiteSpace=wrap;rounded=0;" vertex="1" parent="1">
          <mxGeometry x="760" y="747" width="40" height="20" as="geometry" />
        </mxCell>
        <mxCell id="lmtUF1X2-M9YzweJEV8g-89" value="" style="edgeStyle=orthogonalEdgeStyle;rounded=0;orthogonalLoop=1;jettySize=auto;html=1;" edge="1" parent="1" source="lmtUF1X2-M9YzweJEV8g-85" target="lmtUF1X2-M9YzweJEV8g-88">
          <mxGeometry relative="1" as="geometry" />
        </mxCell>
        <mxCell id="lmtUF1X2-M9YzweJEV8g-85" value="&lt;span style=&quot;font-size: 18px&quot;&gt;competing phones&lt;/span&gt;" style="rounded=1;whiteSpace=wrap;html=1;" vertex="1" parent="1">
          <mxGeometry x="50" y="880" width="120" height="60" as="geometry" />
        </mxCell>
        <mxCell id="lmtUF1X2-M9YzweJEV8g-92" value="" style="edgeStyle=orthogonalEdgeStyle;rounded=0;orthogonalLoop=1;jettySize=auto;html=1;" edge="1" parent="1" source="lmtUF1X2-M9YzweJEV8g-86">
          <mxGeometry relative="1" as="geometry">
            <mxPoint x="540" y="910" as="targetPoint" />
          </mxGeometry>
        </mxCell>
        <mxCell id="lmtUF1X2-M9YzweJEV8g-110" value="" style="edgeStyle=orthogonalEdgeStyle;curved=1;rounded=0;orthogonalLoop=1;jettySize=auto;html=1;" edge="1" parent="1" source="lmtUF1X2-M9YzweJEV8g-86" target="lmtUF1X2-M9YzweJEV8g-109">
          <mxGeometry relative="1" as="geometry" />
        </mxCell>
        <mxCell id="lmtUF1X2-M9YzweJEV8g-111" value="" style="rounded=0;orthogonalLoop=1;jettySize=auto;html=1;" edge="1" parent="1" source="lmtUF1X2-M9YzweJEV8g-86" target="lmtUF1X2-M9YzweJEV8g-109">
          <mxGeometry relative="1" as="geometry" />
        </mxCell>
        <mxCell id="lmtUF1X2-M9YzweJEV8g-86" value="&lt;font style=&quot;font-size: 18px&quot;&gt;Scorer&lt;/font&gt;" style="shape=process;whiteSpace=wrap;html=1;backgroundOutline=1;dashed=1;" vertex="1" parent="1">
          <mxGeometry x="379" y="880" width="120" height="60" as="geometry" />
        </mxCell>
        <mxCell id="lmtUF1X2-M9YzweJEV8g-90" value="" style="edgeStyle=orthogonalEdgeStyle;rounded=0;orthogonalLoop=1;jettySize=auto;html=1;" edge="1" parent="1" source="lmtUF1X2-M9YzweJEV8g-88" target="lmtUF1X2-M9YzweJEV8g-86">
          <mxGeometry relative="1" as="geometry" />
        </mxCell>
        <mxCell id="lmtUF1X2-M9YzweJEV8g-88" value="" style="rounded=1;whiteSpace=wrap;html=1;dashed=1;" vertex="1" parent="1">
          <mxGeometry x="220" y="855" width="120" height="110" as="geometry" />
        </mxCell>
        <mxCell id="lmtUF1X2-M9YzweJEV8g-91" value="&lt;font style=&quot;font-size: 18px&quot;&gt;pronunciation&lt;br&gt;score&lt;/font&gt;" style="text;html=1;strokeColor=none;fillColor=none;align=center;verticalAlign=middle;whiteSpace=wrap;rounded=0;" vertex="1" parent="1">
          <mxGeometry x="579" y="900" width="40" height="20" as="geometry" />
        </mxCell>
        <mxCell id="lmtUF1X2-M9YzweJEV8g-97" value="&lt;font style=&quot;font-size: 18px&quot;&gt;音素边界&lt;/font&gt;" style="text;html=1;strokeColor=none;fillColor=none;align=center;verticalAlign=middle;whiteSpace=wrap;rounded=0;" vertex="1" parent="1">
          <mxGeometry x="480" y="804" width="90" height="20" as="geometry" />
        </mxCell>
        <mxCell id="lmtUF1X2-M9YzweJEV8g-101" value="" style="edgeStyle=orthogonalEdgeStyle;curved=1;rounded=0;orthogonalLoop=1;jettySize=auto;html=1;" edge="1" parent="1" source="lmtUF1X2-M9YzweJEV8g-98" target="lmtUF1X2-M9YzweJEV8g-99">
          <mxGeometry relative="1" as="geometry" />
        </mxCell>
        <mxCell id="lmtUF1X2-M9YzweJEV8g-98" value="how" style="rounded=1;whiteSpace=wrap;html=1;" vertex="1" parent="1">
          <mxGeometry x="493" y="650" width="50" height="20" as="geometry" />
        </mxCell>
        <mxCell id="lmtUF1X2-M9YzweJEV8g-103" value="" style="edgeStyle=orthogonalEdgeStyle;curved=1;rounded=0;orthogonalLoop=1;jettySize=auto;html=1;" edge="1" parent="1" source="lmtUF1X2-M9YzweJEV8g-99" target="lmtUF1X2-M9YzweJEV8g-100">
          <mxGeometry relative="1" as="geometry" />
        </mxCell>
        <mxCell id="lmtUF1X2-M9YzweJEV8g-99" value="are" style="rounded=1;whiteSpace=wrap;html=1;" vertex="1" parent="1">
          <mxGeometry x="593" y="650" width="50" height="20" as="geometry" />
        </mxCell>
        <mxCell id="lmtUF1X2-M9YzweJEV8g-100" value="you" style="rounded=1;whiteSpace=wrap;html=1;" vertex="1" parent="1">
          <mxGeometry x="693" y="650" width="50" height="20" as="geometry" />
        </mxCell>
        <mxCell id="lmtUF1X2-M9YzweJEV8g-106" value="&lt;span style=&quot;font-family: &amp;#34;times new roman&amp;#34; , serif ; font-size: 14px ; text-align: left&quot;&gt;æ&lt;/span&gt;" style="rounded=1;whiteSpace=wrap;html=1;" vertex="1" parent="1">
          <mxGeometry x="255" y="870" width="50" height="20" as="geometry" />
        </mxCell>
        <mxCell id="lmtUF1X2-M9YzweJEV8g-107" value="&lt;span style=&quot;font-family: &amp;#34;times new roman&amp;#34; , serif ; font-size: 14px ; text-align: left&quot;&gt;e&lt;/span&gt;" style="rounded=1;whiteSpace=wrap;html=1;" vertex="1" parent="1">
          <mxGeometry x="255" y="900" width="50" height="20" as="geometry" />
        </mxCell>
        <mxCell id="lmtUF1X2-M9YzweJEV8g-108" value="&lt;span style=&quot;font-family: &amp;#34;times new roman&amp;#34; , serif ; font-size: 14px ; text-align: left&quot;&gt;ə&lt;/span&gt;" style="rounded=1;whiteSpace=wrap;html=1;" vertex="1" parent="1">
          <mxGeometry x="255" y="930" width="50" height="20" as="geometry" />
        </mxCell>
        <mxCell id="lmtUF1X2-M9YzweJEV8g-109" value="&lt;font style=&quot;font-size: 18px&quot;&gt;topN&lt;br&gt;&lt;/font&gt;&amp;nbsp; &amp;nbsp; &amp;nbsp; &amp;nbsp; &amp;nbsp; &amp;nbsp;-&amp;nbsp;&lt;span style=&quot;font-family: &amp;#34;times new roman&amp;#34; , serif ; font-size: 14px ; text-align: left&quot;&gt;e&amp;nbsp;&lt;/span&gt;&lt;span style=&quot;font-family: &amp;#34;times new roman&amp;#34; , serif ; font-size: 14px ; text-align: left&quot;&gt;0.78&lt;br&gt;&amp;nbsp; &amp;nbsp; &amp;nbsp; &amp;nbsp; &amp;nbsp; &amp;nbsp;-&amp;nbsp;&lt;/span&gt;&lt;span style=&quot;font-family: &amp;#34;times new roman&amp;#34; , serif ; font-size: 14px ; text-align: left&quot;&gt;æ&amp;nbsp;&lt;/span&gt;&lt;span style=&quot;font-family: &amp;#34;times new roman&amp;#34; , serif ; font-size: 14px ; text-align: left&quot;&gt;0.19&lt;br&gt;&lt;/span&gt;&lt;span style=&quot;font-family: &amp;#34;times new roman&amp;#34; , serif ; font-size: 14px ; text-align: left&quot;&gt;&amp;nbsp; &amp;nbsp; &amp;nbsp; &amp;nbsp; &amp;nbsp; -&amp;nbsp;&lt;/span&gt;&lt;span style=&quot;font-family: &amp;#34;times new roman&amp;#34; , serif ; font-size: 14px ; text-align: left&quot;&gt;ə 0.03&lt;/span&gt;&lt;span style=&quot;font-family: &amp;#34;times new roman&amp;#34; , serif ; font-size: 14px ; text-align: left&quot;&gt;&lt;br&gt;&lt;/span&gt;" style="text;html=1;strokeColor=none;fillColor=none;align=center;verticalAlign=middle;whiteSpace=wrap;rounded=0;dashed=1;" vertex="1" parent="1">
          <mxGeometry x="376" y="980" width="126" height="60" as="geometry" />
        </mxCell>
      </root>
    </mxGraphModel>
  </diagram>
</mxfile>
